<svg width="30" height="22" viewBox="0 0 30 22" fill="none" xmlns="http://www.w3.org/2000/svg">
<path d="M9.66568 18.3948H9.66705C9.6682 18.3948 9.66934 18.3945 9.67049 18.3945H25.6055C25.9978 18.3945 26.3427 18.1343 26.4505 17.7571L29.9661 5.45241C30.0419 5.18713 29.9888 4.90195 29.8228 4.68176C29.6567 4.46158 29.3969 4.33203 29.1211 4.33203H7.6387L7.01042 1.50465C6.92093 1.10251 6.56433 0.816406 6.15234 0.816406H0.878906C0.393448 0.816406 0 1.20985 0 1.69531C0 2.18077 0.393448 2.57422 0.878906 2.57422H5.44739C5.55862 3.07524 8.45398 16.1046 8.6206 16.8542C7.68654 17.2602 7.03125 18.1915 7.03125 19.2734C7.03125 20.7273 8.21411 21.9102 9.66797 21.9102H25.6055C26.0909 21.9102 26.4844 21.5167 26.4844 21.0312C26.4844 20.5458 26.0909 20.1523 25.6055 20.1523H9.66797C9.18342 20.1523 8.78906 19.758 8.78906 19.2734C8.78906 18.7896 9.18205 18.3959 9.66568 18.3948ZM27.9559 6.08984L24.9424 16.6367H10.3729L8.02917 6.08984H27.9559Z" fill="#EB2D66"/>
</svg>
